<svg id="Layer_1" data-name="Layer 1" xmlns="http://www.w3.org/2000/svg" xmlns:xlink="http://www.w3.org/1999/xlink" viewBox="0 0 378.44 378.44"><defs><style>.cls-1{fill:none;}.cls-2{clip-path:url(#clip-path);}.cls-3{fill:#d0cfcf;}.cls-4{fill:#959595;}.cls-5{fill:#343434;}</style><clipPath id="clip-path"><rect class="cls-1" x="10.63" y="13.02" width="353.22" height="353.22"/></clipPath></defs><g class="cls-2"><path class="cls-3" d="M110.19,360.76c24.44-1.54,48.79-2.95,73.13-5.54,8.13-1.92,16.24-3.29,24.16-6.16a7.21,7.21,0,0,0,5.24-7.39,8.33,8.33,0,0,0-1.76-1.48c-12.88-1.2-25.56-1.78-38.47-.63-28.64,2.56-57.29,3.88-85.73,8.61-14.2,2.37-27.74,8.08-41.36,12.67C67,363.28,88.55,362.12,110.19,360.76Z"/><path class="cls-3" d="M289.09,259.65c-2.43,1.27-5.39,2.28-7.27,4.26-7.75,8.15-13.26,17.87-22,25a112.41,112.41,0,0,1-29.16,17.51c-21.62,8.54-43.76,9.75-66.7,9.68a24.74,24.74,0,0,0-1.75,17.34c9-.09,18.23,1.7,27.08,0a397.71,397.71,0,0,0,52.4-13.5c11.95-4,22.75-11.18,34.08-16.69-2.19-5.53-4.56-10.9-6.89-16.33C277.33,278.76,284.22,270.47,289.09,259.65Z"/><path class="cls-3" d="M317.71,90.64c-9.44.49-31.79-9-47.1-18.74-2.46-5.64-2.16-9.45.76-14.65,18.6,6.44,27.82,15.59,49.34,9.49,18.64-5.29,14-18.85,29.06-25.91-7.36,9-2.17,21.29-11.12,38C335.83,84.09,329.77,90,317.71,90.64Z"/><path class="cls-4" d="M271.43,57.26c-.23,4.88-.57,9.76-.83,14.65-17.4-8.25-34.34-18.18-53.31-22.21-.19-.6-.37-1.2-.55-1.8C235.53,47.28,253.26,53.17,271.43,57.26Z"/><path class="cls-3" d="M112.9,327.1a3.86,3.86,0,0,0,1.15-4.35c-1.59-5.35-3-10.51-4.73-15.8-2.78-2.52-5.58-5.77-8.94-7.37a303.22,303.22,0,0,1-42.92-24.47q-.14,9.52-.33,19c-.07,3.76-.18,7.52-.27,11.28,6.11,2.76,12.07,5.93,18.35,8.27C87.73,318.38,100.34,322.6,112.9,327.1Z"/><path class="cls-4" d="M256.7,103.61c-2.8-1.53-4.94-2.6-4.51-6.12-4.14-2.39-8.45-4.59-12.6-6.92-3.24-1.83-6.35-3.68-9.56-5.52.32-.56.59-1.13.88-1.71q2.68-.65,5.39-1.24c-6.51-11.66-13.6-20.29-25.5-26.63,23.25,3.32,43.49,13.19,64.29,23.64a143.66,143.66,0,0,1-13.84,11.47c-3.7,2.85-3.7,5.44-.91,8.9,1.32,1.63,3,3,4.32,4.67-.39.51-.46.57-1.17.46C261.3,104.26,258.94,103.92,256.7,103.61Z"/><path class="cls-3" d="M44.38,338.68a6.09,6.09,0,0,0,1.82-.17c.6-.12,1.23-.41,1.86-.54a100.16,100.16,0,0,1,14.44-1.81c.68,0,1.36.06,2,0s1.33,0,2-.09,1.32-.14,2-.22a69,69,0,0,1,6.89-.34,8.58,8.58,0,0,0,2-.28,93.78,93.78,0,0,1,10.53-1.81c.33,0,.58-.34.9-.37,4.83-.54,9.66-1,14.49-1.5q-25.41-8.18-50.92-16Q47.17,326.35,42,337.12a11.15,11.15,0,0,0,1.28,1.21A2.3,2.3,0,0,0,44.38,338.68Z"/><path class="cls-4" d="M122.48,337c0-.21.23-.37.21-.59s-.25-.34-.33-.53q-8.06-.51-16.12-1c.23,1.67.47,3.34.7,5Q114.7,338.46,122.48,337Z"/><path class="cls-3" d="M260.1,99.53c-4-3-7-4.75-2.06-9.34,4.57-4.23,11.45-7.72,17-11,6.79,4.48,13.65,8.5,21.34,11a111.88,111.88,0,0,0-21.19,3.65A107.46,107.46,0,0,0,260.1,99.53Z"/><path class="cls-3" d="M69.35,259.21c-.06.53-1.8,1.22-2,1.12-5.41-2.64-7.69-2.63-9.76,3.32a17.39,17.39,0,0,1-1.46,3.48,169.63,169.63,0,0,0,38.65,25C86.31,281.14,77.94,270.12,69.35,259.21Z"/><path class="cls-5" d="M322.93,341.71c.6-6.13,2.51-12.57,9.72-12.15,5.14.3,7.82,3.43,5.4,8.58C335.22,344.16,328.7,344.55,322.93,341.71Z"/><path class="cls-3" d="M283.23,119.84c-4.86-4-9.78-8-14.85-11.7.38-.32.74-.64,1.11-1,5.06,3.71,9.93,7.66,14.78,11.65Z"/><path class="cls-5" d="M50.72,220.41c-.61-2.38-1.21-4.76-1.81-7.16.63,0,1.27-.43,1.9-.31,1.12.21,1.5.88,1.82,1.91,0,0,0-.16,0-.11.07.75.13,1.53.19,2.27,0,.06,0-.17,0-.12a5.51,5.51,0,0,1,0,3.24Z"/><path class="cls-4" d="M267.71,113.47q-4.54-4.18-9.13-8.3Q263.15,109.3,267.71,113.47Z"/><path class="cls-5" d="M302.08,239.7h-.24"/><path class="cls-3" d="M53.4,264.47l-2.88-4.3Z"/><path class="cls-3" d="M263.59,104.57c.28-.07.69-.5,1-.32s0,.63,0,.89A8.37,8.37,0,0,1,263.59,104.57Z"/><path class="cls-4" d="M185.81,33.78s-.18,0-.18,0,.14,0,.17,0S185.84,33.79,185.81,33.78Z"/><path class="cls-3" d="M203,35.63l-3.5.4Z"/><path class="cls-3" d="M235.19.36c0-.37.32-.85.45-1.21a3.59,3.59,0,0,1,.08,1.12C235.67.57,235.2.73,235.19.36Z"/><path class="cls-5" d="M302.06,239.69c0-.08-.15-.07-.19-.05s-.05,0,0,.07S302.05,239.78,302.06,239.69Z"/><path class="cls-5" d="M331,51.37c-8.7,17.87-32.91,6.42-32.91,6.42s-22.33-5.72-31.54-8.85c7.06.69,14.15,1.09,21.2,1.88-19.28-5.41-37.92-13-57.57-17-8,.19-16,.71-23.94,1.26a30.35,30.35,0,0,0-3.27.61,21.51,21.51,0,0,1-3.5.35,246.28,246.28,0,0,0-37.18,11.58l-.64-1.06q2.76-3.82,5.48-7.7l-1.72-1.67c-20.76,15.33-42.93,28.53-64.23,43.06.38-1.89.8-3.79,1.15-5.66-1.81,2.63-4.13,5.51-5.93,8.11-9.56,13.78-21.25,27.88-28.87,42.44-14.7,28.06-19.35,57.05-18.83,88.23a2.23,2.23,0,0,0,2,0c.74-13.42,1.32-26.84,1.87-40.27a.56.56,0,0,0,0-.22c.26,7.9-.3,15.74-.11,23.66.13,5.4.63,10.74-.27,16.14a20.2,20.2,0,0,0-.41,2,7.46,7.46,0,0,0,.12,2,6,6,0,0,0,.74,1.79,17,17,0,0,1,1.75,3.81,5.25,5.25,0,0,0-.17-.6,3.57,3.57,0,0,0-1.86-1.9c-.85-.31-1.16.19-1.8.59,6.14,13,12.42,25.88,18.63,38.82.7,2.65,1.18,5.33,2.84,7.57,5.81,7.85,12.39,15,18.93,22.19a252.54,252.54,0,0,1-25.8-16.42,40.77,40.77,0,0,0-9.31-5.42,33.92,33.92,0,0,1-2.68-2.83,36.86,36.86,0,0,1-3.1-4.53c-11.37-21.51-19.48-46.63-18.18-70.6s10.31-42.62,17.19-64.67c-1.59,2-5.16,2.23-5.92,4.84-6.77,23-15.89,41.86-15.43,67.07.5,27.59,12,56.1,29.26,78.32A49.94,49.94,0,0,0,71.37,287.7c11.83,6.87,24.22,12.46,36.07,19.23,9.82,3.48,19.47,7.58,28.87,12,3.12,1.47,6.21,2.14,9.34,1,6.22-2.25,11.25-3.13,17.76-2.33,15.3.13,30.61.15,45.82-1.83a66,66,0,0,0,23.36-7.89c7.93-4.33,15.37-9.28,23.11-13.73a36.54,36.54,0,0,0,9.57-7.94c7.85-9,15.49-18,24-26.33q3.94-10.65,8-21.27c1.6.44,3.21.86,4.81,1.31,3.25-22,4-43.44.72-65.52-.48-3.25-1.89-6.68-1.53-10.26.08-.85,2-2.24,3-2.25a29.7,29.7,0,0,0-1.82-3.82c-3.59-6.5-7.18-13-10.94-19.46a25.67,25.67,0,0,0-3.85-5.43c-6.58-6.49-13.33-12.84-19.71-19.47a123.12,123.12,0,0,0-9.18-8.39c-.64-.54-1.28-1-1.92-1.58-6.49-7.43-14.11-12.84-22.71-17.62,1.57-1.81,3.17-3.6,4.66-5.47a61.93,61.93,0,0,1-4.63-8.24c-1.54-3.14-2.39-6.52-5.11-9.38s-6.91-5-10.68-6.49c40.59,4.38,63,35.64,100.67,37.37-23.57-2.85-33-16.06-49.6-26.15s-27.73-12.24-43.67-19.05c12.93,1.35,33.16,6.63,44,9.72,22.63,6.42,41.95,24,60.17,6.43,7.28-7,7.66-19.56,16-24.34,1.62-.86,3.57-2,5.14-2.84C342.34,38.08,333.76,45.64,331,51.37ZM55.74,226.64a34.28,34.28,0,0,0-1.31-3.85,25.81,25.81,0,0,1,1.36,4A12.71,12.71,0,0,0,57,229.46a1.69,1.69,0,0,1,.08.24A18.63,18.63,0,0,1,55.74,226.64Zm-2.9-54.89c3.09-9.77,6.33-19.47,9.91-29.08A162.65,162.65,0,0,1,52.84,171.75Zm13.94-36.56c-.38.56-1,1.07-1.39,1.66-.09.14-.2.3-.29.45q3.14-6.66,6.47-13.21A38.41,38.41,0,0,1,66.78,135.19Zm89,11.29c2.5-7.3,13.46-11,20.37-8.19,8.79,3.58,8.5,10,10.29,17.93-4.24,2.59-8.51,4.83-12.85,7.14,3.64-1.46,7.06-2.65,11-2.77a7,7,0,0,1-.67,1.3c-1.35,2.29-2.72,4.53-5.1,5.88-4.55,2.58-10.51,3-14.62-.16C156.38,161.53,152.26,156.63,155.74,146.48Zm-11.37-11.15c-4.38,22.62-5.05,26.13,13,41.55-8.52-2.27-16.9-4.08-20.19-13.22C133.09,152.37,138.09,144.48,144.37,135.33ZM215,102.92c19.68,8.89,35.75,20.36,51.39,35.11,4.78,4.5,9.09,10,13.91,14.59.48.45.75.23,1.28,0,.88.7,2.75,1.34,3.08,2.49,4.66,16.21,10.19,31.56,9.19,48.65-1,16.49-2.67,33.06-10.89,47.66-14.32,25.41-37.4,40.12-63.14,52.19-3.16-2-3.63-3.79-3-7.34a43.66,43.66,0,0,1,8.25-4.69c3-1.21,6-2.08,8.9-3.54a69,69,0,0,1-11,2.26c-4.23-4.3-10.2-4.85-15.62-4.57-12.68.66-22.2-1.47-33.51-6.59a7,7,0,0,1-2-1,27.49,27.49,0,0,1-8.59-13.59,16,16,0,0,1,2.39-4.95,5,5,0,0,1,2.76,1.28c.44,1.53,1.27,1.76,2.76,1.84,4.6,3.13,8.19,4.21,13.6,2.53a22.07,22.07,0,0,0-6.64-5.9c-11.41-7.21-22.24-14.63-32.2-23.81a17,17,0,0,1-4.42-7c-.65-1.84-.44-3.93-1.14-5.87-5.3-14.82-9.25-30.13-12.87-45.44-.84-3.52-2.68-6.84-3.4-10.2s0-5.9,1.26-8.85c1.42-3.42,3.28-6.45,4.72-9.76,1.8,5.39,2,12.26,4.7,17.14C139.56,174,145.73,177.41,155,179c7.69,1.32,15.8.2,23.36.88,1.9.17,4.46.23,5.4-.93,6.47-7.95,11.28-16.32,17.14-24.5,0-3.47,1.4-6.55,2.2-9.88-5.33-5.58-11-11.06-16.23-16.59,23.3,4.58,44.45,16.14,55.55,37.45,7.45,14.29,4.42,25.83-.45,39.82-4.6,13.21-15.32,20.77-24.88,30.15,12-7.62,21.27-16.8,30-28-5.35,13.1-8.79,22.77-21.13,31.53-9.92,7-23.4,9.91-35.89,10.15,11.08,4.76,21.39,5.33,33.34,3.81.36.71.71,1.42,1.07,2.14-5.67,2.74-11.32,5.46-17,8.23,3.59,2.57,5,3,8.55-.31a34,34,0,0,1,3.25-2.29c39.79-28.25,47.82-54.2,32-100.21-2.46-7.16-6.36-12.05-10.14-18.07s-8.67-10.43-12.93-16c2.55.67,5.14,1.18,7.71,1.75q-12-7.8-24.08-15.38c.34-.62.67-1.24,1-1.86q6.31,2.11,12.61,4.25c.25-.49.49-1,.73-1.49q-11.31-5.28-22.88-10c.42-.78.76-1.56,1.26-2.33C207.82,102,212.09,101.59,215,102.92Z"/><path class="cls-4" d="M123.58,274.11c-1,.86-1.49,3.86-.81,4.43,7.8,6.53,15.44,12.55,24.17,17.36,6.9,3.81,14.39,5.46,21.84,7.67,5.48,1.62,11.12,2.1,16.68,3.29-2.37-3.68-4-6.48-3-10.92-2.32-6-5-11.84-7.29-17.85-.44-.12-.85-.26-1.29-.4-5.78-.28-9.1-2.33-11.92-7.4-1.76-3.15-2.69-6.65-4-10l-5.53-.28q-15.81-14.43-31.65-28.84c-2.49,14.8,1.84,24.79,10.39,36.73C128.53,269.75,126,272.13,123.58,274.11Z"/><path class="cls-4" d="M122.9,209.13c-.77,6.66-2.08,11.8,1.43,17.39,7.9,12.61,18.69,21.13,30.27,30.1,2.46,1.91,5.29,3.34,7.77,5.23a1.72,1.72,0,0,0,1.83,1.43c.71-1,1.47-2.08,2.11-3.16-1.32-3.46-4.53-4.74-7.3-6.66-9.18-6.36-15.59-13.73-21.42-23.12a22.36,22.36,0,0,1,3.81-1.59c.62-1.47,1.51-4,1-5.41A377.79,377.79,0,0,1,129.08,175c-1.2-5.61-2.37-11.28-3.64-16.86-1.71,2.52-4.65,5.54-4.75,8.64-.31,9,.61,18,1.41,26.61C122.59,198.68,123.45,204.37,122.9,209.13Z"/><path class="cls-4" d="M125,331.31c12.44,1.2,24.75,1.39,37.19,2.1.38-5.76,1.49-11.5,1.15-17.25-1.26-2.57-11.88-2.51-12.6-1.74-5,5.33-9.11,4.53-13.89,2.46-10.07-4.34-17.36-7.85-27.64-9.92,1.45,6.74,2.5,13.45,3.76,20.22C116.88,328.56,120.79,330.91,125,331.31Z"/><path class="cls-3" d="M220,303.46c-.49-2.39-1-4.78-1.48-7.17a235.93,235.93,0,0,0-29.25-.14l-1.93.11c-1.51.07-3-.11-4.52-.11a1.22,1.22,0,0,0-.83.32c-1.82,1.5-3.59,3.12-5.37,4.68l8.89,5.68A108.64,108.64,0,0,0,220,303.46Z"/><path class="cls-3" d="M66.21,136.81c-1.21,4.72-2,9.77-3.69,14.31-2.89,7.79-6.51,15-10.06,22.47,0,0,.14,0,.15,0,2.54-9,3.91-18.22,7.07-27.11,3.55-10,8.79-19.46,13.27-29.11.84.44,1.63.9,2.45,1.36q-3.89,9-7.71,18C67.11,135.94,66.81,136.28,66.21,136.81Z"/><path class="cls-3" d="M52.65,214.87c-.63-.67-1.21-1.36-1.84-2-.06-10.56-.38-21-.15-31.6.06-2.55,1.3-5.18,2-7.67,0,0-.13,0-.11,0,.81,1.27,2.36,2.73,2.45,4.23a200.88,200.88,0,0,1-.32,24.91C54.37,206.84,53.27,210.82,52.65,214.87Z"/><path class="cls-3" d="M165.7,277.88c2.41,2.29,5.91,3,8.09-.22-3.08-4.83-6.37-9.6-9.57-14.38a16.37,16.37,0,0,0-1.87-1.38c-1.44-.65-2.94-1.06-4.44-1.62C159,267.45,160.19,272.64,165.7,277.88Z"/><path class="cls-3" d="M203.11,146.68c.71.52,2.1,2.29,1.83,3.07-.93,2.69-2.6,4.52-4.16,6.68-2.39,3.31-5,6.37-7.35,9.66.92-7.23,1.91-14.43,2.88-21.64C198.58,145.2,200.84,145.85,203.11,146.68Z"/><path class="cls-3" d="M184.65,160.65q-8.13,3.15-16.26,6.28l-1.23-3c6.39-2.51,12.76-5,19.15-7.56C185.75,157.81,185.2,159.23,184.65,160.65Z"/><path class="cls-3" d="M91.94,97.47Q84.89,108.2,78,119.05L76.76,118q6.8-10.76,13.77-21.38Z"/><path class="cls-3" d="M56,227.27a46.37,46.37,0,0,1-1.86-5.11c.46-.65,1.08-1.11,1.57-.15a44.67,44.67,0,0,1,1.7,5.09C57,227.59,56.36,228,56,227.27Z"/><path class="cls-3" d="M52.9,220a24.87,24.87,0,0,1-.14-3.14c1,1.66,2,3.35,3,5-.56.1-1.13.17-1.69.29C53.75,221.38,53.12,221,52.9,220Z"/><path class="cls-3" d="M179.1,167.88l4.84-5.95Z"/><path class="cls-3" d="M59.51,234.54c-.49-1.42-1-2.83-1.48-4.25l-.82.13c.41,1.49.82,3,1.24,4.47Z"/><path class="cls-3" d="M58,230.29l-.63-3.2-1.53.27c.44,1,.89,2,1.34,3.06Z"/><path class="cls-3" d="M52.81,217c-.06-.77-.13-1.54-.2-2.32C52.68,215.5,52.75,216.27,52.81,217Z"/><path class="cls-3" d="M66.48,335s0,0,0,0,.09,0,.08,0S66.5,334.93,66.48,335Z"/><path class="cls-3" d="M64.35,335.26s0,0,0,0,.11,0,.1,0S64.36,335.23,64.35,335.26Z"/><path class="cls-3" d="M88.8,333.05s.07,0,.09,0,0,0,0,0S88.82,333,88.8,333.05Z"/><path class="cls-5" d="M305.69,280.85c8.24-15.94,12.69-33.2,17-50.56-13.11,26-27.27,51.21-47,73-12.24,4.93-24,11.72-36.44,16-25,8.51-50.08,12.9-76.59,12.41-9-.17-18.47-1.09-27.59-1.46a80.44,80.44,0,0,1-22.41-4.52A296.29,296.29,0,0,1,73.65,310.7c-5.38-2.51-10.78-4.65-16.77-5.27-8-2-16.05-3.94-24.26-4.9-3.18-.38-6.26-.31-9.42-.74.62.64.88,1.18,1.58,1.82a128.94,128.94,0,0,0,12.49,9.61,144,144,0,0,1,15.07,4.49c2.09.8,3.7,2.41,5.91,3.09,12.7,3.89,25.49,7.78,38.33,11.25a9.35,9.35,0,0,0-7.6,3.82c5.53,2.72,10.91,2.81,17,2.82a88.2,88.2,0,0,1,14.72-.11c.08,0,.73,0,0,.06a5.87,5.87,0,0,0-1.82,0,94.41,94.41,0,0,0-12.31,1.91c-20.21,5.12-40.38,9-60.77,12.77-.47.49-1,1-1.45,1.46l-15.85,3.32c5,1.55,10.08,3,15.16,4.39a20.35,20.35,0,0,0,2.79.59C62.11,357.16,78.05,352,94,349.48a642.29,642.29,0,0,1,115-7.8,7.45,7.45,0,0,0,1.89-.52c.83,2.86,1.29,3.73-2.35,4.65-25.15,6.42-51.63,7.74-76.9,14.63,13.83-.24,25.19.72,39.66-.8s34-7,47.61-11.43c8.08-2.64,13.61-2.09,20.4-3.14a237.27,237.27,0,0,0,57.48-16.44c-8.55-2.08-17.05-4.23-25.52-6.32C284.7,309.64,297.12,297.45,305.69,280.85Zm-94.61,59.69c2.93-3,6.11-3.08,10.12-3.48C217.54,337.84,214.18,338.31,211.08,340.54Zm71.6-8.23a176.52,176.52,0,0,1-46,8.8C251.84,331.8,265.14,329.77,282.68,332.31Z"/><path class="cls-5" d="M58.65,333.5c1.21-.21,2.41-1.53,3.31-2.41,0,0,0-.15,0-.18s0,0,0,0,0,0,0,0a3,3,0,0,0-1.12-1.24c-13.14,2.79-26.07,6.16-38.88,10.19,1.24.47,2.49.92,3.72,1.4A285.86,285.86,0,0,1,58.65,333.5Z"/><path class="cls-3" d="M210.91,341.12s0,0,0,0-.1,0-.09,0S210.9,341.14,210.91,341.12Z"/><path class="cls-3" d="M227.56,336.1c-.16-.58-.32-1.15-.47-1.73l-19.58,2.91,3.4,3.81Z"/><path class="cls-5" d="M243.33,82.55c2.38.77,4.75,1.57,7.12,2.34.37,1.82,1.49,3.32,1.83,5.15-3.35-1.57-6.29-3.83-9.67-5.35Z"/><path class="cls-3" d="M182.11,296.36c1.87.17,3.68.59,5.55.76h-.16c6.32-.91,12.59-1.72,19-2.34s12-1.56,17.45-5.15c-.92-1.94-3-5.69-5.09-6-6.51-.91-12,.71-18.28,1.14-8.74.59-14.85-.82-21.92-6.38a4.88,4.88,0,0,0-3.36-.29c.48,6.92,3.16,12.39,6.68,18.28C182,296.4,182.06,296.35,182.11,296.36Z"/><path class="cls-5" d="M239.19,284.11q-7.58,2.83-15.17,5.64c-10,1.68-20,3.23-30,5.1-2.26.42-4.34,1.51-6.5,2.25,10.32-.23,20.63-.52,30.95-.81C226.14,293.08,233.13,290,239.19,284.11Z"/><path class="cls-4" d="M270.58,257.28q-8.85,9.45-17.67,18.92l-1.09-.88q8.48-10,17-20Z"/><path class="cls-4" d="M269.14,152.68q4,8.22,8,16.49a2.2,2.2,0,0,1-2.06.42c-2.7-5.6-5.4-11.18-8.15-16.75A1.83,1.83,0,0,1,269.14,152.68Z"/><path class="cls-4" d="M282.82,220.67q-1.38,6.47-2.77,12.92l-2.41-.67q1.58-6.13,3.16-12.27A3.74,3.74,0,0,1,282.82,220.67Z"/><path class="cls-4" d="M273.08,245.77l4-10.64,1.81.68Q277,241,275.09,246.27Z"/><path class="cls-4" d="M260.79,144q-4.05-4.58-8-9.22l2.14-1.43q3.9,5.16,7.89,10.25A2,2,0,0,1,260.79,144Z"/><path class="cls-4" d="M264.53,149c-1.26-1.68-2.5-3.36-3.74-5l2-.4c1.25,1.69,2.52,3.36,3.78,5A2.1,2.1,0,0,1,264.53,149Z"/><path class="cls-4" d="M269.84,251.85l2.91-3.41.67.52-2.52,3.72Z"/><path class="cls-4" d="M266.94,152.84l-2.41-3.8,2-.42c.86,1.35,1.71,2.71,2.56,4.06Z"/><path class="cls-4" d="M281.9,200.13c0-.19,1-.35,1-.3a5.44,5.44,0,0,1,.83,1.88l-1.52.31A9.12,9.12,0,0,1,281.9,200.13Z"/><path class="cls-4" d="M282.76,189.85c0,1.05,0,2.08,0,3.12-1,.05-2.1.12-3.15.13.51-.9,1-2.08,1.55-2.9S282,189.65,282.76,189.85Z"/><path class="cls-4" d="M282.28,186.59c.15,1.09.31,2.19.47,3.28l-1.54.19c-.25-1.06-.51-2.13-.76-3.2A2.89,2.89,0,0,1,282.28,186.59Z"/><path class="cls-4" d="M277.15,169.17c0,.92,0,1.83,0,2.75l-2.1-2.34Z"/><path class="cls-5" d="M281.35,152.36a17.47,17.47,0,0,1,1.82,1.83l-.73.64c-.75-.82-1.51-1.62-2.24-2.45C280.57,152.43,281,152.13,281.35,152.36Z"/><path class="cls-4" d="M281.71,215.44l1.15-2c.15.64.29,1.27.44,1.91A2,2,0,0,1,281.71,215.44Z"/><path class="cls-4" d="M249.19,277.3c-.15-.08-.29-.26-.17-.42a.62.62,0,0,1,.66-.19c.2.09.18.39.06.53A.49.49,0,0,1,249.19,277.3Z"/><path class="cls-4" d="M283.3,215.35l-1.16,2c-.14-.63-.29-1.27-.43-1.9Z"/><path class="cls-4" d="M280.8,220.65l1.5-1.94c.17.66.34,1.31.52,2Z"/><path class="cls-4" d="M280,184.79l.42-1.81,1.65,1.81A3.56,3.56,0,0,1,280,184.79Z"/><path class="cls-4" d="M282.08,184.79c.06.6.12,1.2.19,1.8l-1.82.27c-.15-.69-.29-1.38-.44-2.07Z"/><path class="cls-4" d="M281.72,196.64c.19-.75.37-1.5.55-2.25l1.3,1.83A3,3,0,0,1,281.72,196.64Z"/><path class="cls-4" d="M283.57,196.22l-1,2.09c-.28-.56-.57-1.12-.86-1.68Z"/><path class="cls-4" d="M282,205.88c.24-.69.49-1.38.74-2.07.35.68.7,1.36,1.06,2A2.49,2.49,0,0,1,282,205.88Z"/><path class="cls-4" d="M282.06,208c0-.7,0-1.4,0-2.1l1.79,0c.06.7.12,1.4.17,2.1A2.87,2.87,0,0,1,282.06,208Z"/><path class="cls-4" d="M284,207.94c0,.69,0,1.39-.05,2.08a4.17,4.17,0,0,1-2.06.33c.06-.79.11-1.58.17-2.37Z"/><path class="cls-4" d="M284,210l-1.2,2.06c-.28-.58-.57-1.15-.86-1.73Z"/><path class="cls-3" d="M163.87,164.21a.35.35,0,0,1,.62,0,1.41,1.41,0,0,1-.29,1c-.17.23-.53.28-.62,0A1.47,1.47,0,0,1,163.87,164.21Z"/><path class="cls-5" d="M182.12,296.35l5.54.77Z"/><path class="cls-5" d="M67.69,136.67l-1.5.11,1.32-3.21.82.39c-.22.9-.43,1.8-.64,2.71"/><path class="cls-5" d="M62.46,72.59Q52.53,82.28,42.59,92c-1.22,1.19-2.47,2.36-3.71,3.53-.33-.37-.67-.74-1-1.1C47.28,85.58,56.2,76.17,66.2,68.1c15.89-12.85,32.33-25,48.89-37,6-4.35,12.86-7.69,19.66-10.77,5-2.28,10.57-3.33,15.85-5.06A38.42,38.42,0,0,0,155.22,13l.57,1c-.94.62-1.86,1.29-2.84,1.85-6.27,3.6-13.14,6-18,12.13-2.72,3.44-7.22,5.48-10.7,8.89l27.19-7.94.25,1c-9.55,2.79-19,5.88-28.66,8.3-17,4.27-32.54,10.69-44.37,24.51-14.71,17.19-30,33.92-45,50.84a6.14,6.14,0,0,1-3.56,2.27,64.4,64.4,0,0,1,3.67-5.47C43.16,99,52.57,87.78,61.92,76.48a35.43,35.43,0,0,0,2.39-3.7A6,6,0,0,1,62.46,72.59Z"/><path class="cls-5" d="M88.77,85.67l-10,9.56-2.06-1c.13-1.93-.48-4.5.53-5.67C79.86,85.61,82.52,81.43,88.77,85.67Z"/><path class="cls-5" d="M323.46,86.23c-3-1-5.78,1.9-8.1-1.37-1.23-1.74-1.7-7,.08-8.55,2-1.71,4.31-2.28,6.88-.39,1.5,1.1,3.58,1.37,5.31,2.21.6.29,1.42,1.59,1.29,1.76C327.19,82.07,325.31,84.13,323.46,86.23Z"/></g></svg>